# xmcd
#
# Track frame offsets:
#	150
#	19701
#	38900
#	54397
#	70128
#	88733
#	110112
#	128553
#	147543
#	166321
#	183026
#	191304
#	201874
#	220133
#	236734
#	254303
#
# Disc length: 3794 seconds
#
# Revision: 0
# Processed by: cddbd v1.4PL0 Copyright (c) Steve Scherf et al.
# Submitted via: EasyCDDAExtractor 4.5.0.2
#
DISCID=e20ed010
DTITLE=KONITOPOULOS VANGELIS - tou erota ta thaymata 2003
DYEAR=1900
DGENRE=
TTITLE0=г фаяцама  -  йомитопоукос  (R) (103,8 bpm)
TTITLE1=ав йаи ти де ха 'дима  -  йомитопоукос  (R) (87,5 bpm)
TTITLE2=еилаи жыс лоу еяытеулемос  -  йомитопоукос  (йАК) (124 bpm)
TTITLE3=ека дяосоука тгс ауцгс  -  йомитопоукос (Ac) (69,5 bpm)
TTITLE4=о акгтгс  -  йомитопоукос  (с) (107 bpm)
TTITLE5=дем лпояы ма се невасы  -  йомитопоукос  (R) (79,5 bpm)
TTITLE6=с' епехулгса  -  йомитопоукос  (R) (82,5 bpm)
TTITLE7=ам ха цуяисеис  -  йомитопоукос  (R) (83,5 bpm)
TTITLE8=левяи ма пехамеи о ваяос  -  йомитопоукос  (R) (105,1 bpm)
TTITLE9=выяислос выяис аитиа  -  йомитопоукос  (R) (90 bpm)
TTITLE10=латаиа  -  йомитопоукос  (R) (90 bpm)
TTITLE11=дем ха йатсы ма сйасы  -  йомитопоукос  (R) (90 bpm)
TTITLE12=де лоу димеи сгласиа  -  йомитопоукос  (R) (74 bpm)
TTITLE13=басама  -  йомитопоукос  (70,5 bpm)
TTITLE14=окои стгм йокасг ха пале  -  йомитопоукос (тс) (138,7 bpm)
TTITLE15=пакио килами  -  йомитопоукос  (Ac)
EXTD=
EXTT0=
EXTT1=
EXTT2=
EXTT3=
EXTT4=
EXTT5=
EXTT6=
EXTT7=
EXTT8=
EXTT9=
EXTT10=
EXTT11=
EXTT12=
EXTT13=
EXTT14=
EXTT15=
PLAYORDER=
